<?xml version="1.0" encoding="UTF-8"?>
<svg width="1600px" height="1000px" viewBox="0 0 1600 1000" version="1.1" xmlns="http://www.w3.org/2000/svg" xmlns:xlink="http://www.w3.org/1999/xlink">
    <!-- Generator: Sketch 47.1 (45422) - http://www.bohemiancoding.com/sketch -->
    <title>Artboard</title>
    <desc>Created with Sketch.</desc>
    <defs></defs>
    <g id="Page-1" stroke="none" stroke-width="1" fill="none" fill-rule="evenodd">
        <g id="Artboard">
            <g id="Group-Copy" transform="translate(729.000000, -657.000000)">
                <rect id="Rectangle" fill="#FFF17E" x="0" y="0" width="1772" height="1772" rx="886"></rect>
                <path d="M704.490079,1053.1763 C689.079054,1010.85746 627.343222,1015.66122 614.821764,1016.57622 C602.300307,1017.49123 568.542823,1019.45848 551.159554,1012.73322 C539.732079,1008.67682 527.507844,1007.36032 515.475693,1008.89021 C529.923529,1003.12569 559.828256,1005.0472 581.064281,1008.89021 C602.300307,1012.73322 629.2696,1006.00795 645.68968,1006.9687 C657.094535,1007.862 668.393878,1009.7915 679.447164,1012.73322 C679.447164,1012.73322 677.520785,989.858167 667.888895,980.982648 C658.257004,972.107129 632.893026,972.38163 618.628654,970.460126 C608.079441,969.041873 581.935738,971.237877 568.81802,972.51888 C585.283967,972.51888 608.905032,980.799648 613.812709,984.871406 C619.591844,989.675166 643.717436,983.910654 647.570192,987.753662 C651.422949,991.596671 628.260545,1000.24344 601.291251,987.753662 C574.321958,975.263886 540.518609,981.028398 521.254827,983.910654 C501.991046,986.79291 478.828643,999.282687 478.828643,1011.81821 C479.070558,1019.81081 481.759531,1027.53802 486.534155,1033.96126 C547.306798,1030.0725 583.953848,1049.33329 592.62255,1051.1633 C601.291251,1052.9933 627.343222,1038.67352 629.315466,1052.12405 C631.287711,1065.57458 576.294202,1057.88856 551.343019,1048.28104 C526.391836,1038.67352 473.370571,1041.55578 473.370571,1041.55578 C473.370571,1041.55578 420.349307,1049.24179 413.744582,1076.1886 C407.139857,1103.13541 417.597338,1120.42894 417.597338,1120.42894 C427.631632,1121.13269 437.616611,1122.41585 447.502065,1124.27195 C498.596951,1140.60474 498.596951,1177.15906 498.596951,1182.96933 C498.596951,1188.77959 510.15522,1193.5376 510.15522,1193.5376 C522.257243,1196.96106 533.911531,1201.79833 544.875892,1207.94888 C516.438882,1214.76564 487.497344,1199.39361 488.460533,1179.26357 C489.423722,1159.13353 470.114075,1144.63074 446.034349,1134.06247 C421.954622,1123.4942 396.86584,1133.97097 385.21584,1140.69624 C373.565839,1147.4215 338.936899,1153.18601 338.936899,1153.18601 C333.756474,1154.03121 328.824778,1155.9989 324.489063,1158.95052 C320.636307,1162.79353 311.004416,1166.63654 302.289848,1169.5188 C293.575281,1172.40105 300.36347,1183.93008 303.253037,1186.81233 C308.254318,1192.5332 315.099168,1196.33526 322.608551,1197.56361 C332.240441,1198.52436 376.593004,1201.40661 387.23395,1196.60285 C397.874896,1191.79909 405.580408,1186.03458 414.24911,1190.83834 C419.137042,1193.1943 422.427596,1197.93529 422.917811,1203.32812 C422.917811,1203.32812 431.586513,1177.34206 451.859349,1170.6168 C451.859349,1170.6168 419.065055,1198.52436 427.733756,1234.11793 C427.733756,1234.11793 428.696946,1250.45072 453.785727,1268.75076 C478.874509,1287.0508 533.822151,1295.69756 581.064281,1279.31903 C628.306411,1262.94049 644.726491,1207.17113 625.416844,1169.5188 C607.62078,1134.84022 546.985735,1101.8544 493.73514,1094.76314 C489.107553,1094.15937 484.974575,1091.5712 482.418422,1087.67634 C479.862269,1083.78147 479.137523,1078.96783 480.433958,1074.49585 C480.844586,1072.99186 481.615918,1071.61011 482.681399,1070.46984 C488.460533,1064.70533 487.497344,1083.92037 493.276479,1085.84187 C493.276479,1085.84187 596.475306,1103.13541 622.481411,1152.22526 C638.184301,1153.45541 653.973577,1153.02602 669.585942,1150.94426 C689.963895,1147.6967 705.957198,1131.78075 709.260158,1111.46192 C712.681402,1091.94563 711.039296,1071.88074 704.490079,1053.1763 Z M344.500066,1174 C342.680012,1174 341.039173,1172.90363 340.342669,1171.22212 C339.646164,1169.54061 340.03116,1167.6051 341.318132,1166.31813 C342.605104,1165.03116 344.540606,1164.64616 346.222116,1165.34267 C347.903626,1166.03917 349,1167.68001 349,1169.50007 C349,1171.98531 346.985311,1174 344.500066,1174 Z" id="Shape" fill="#000000" fill-rule="nonzero"></path>
            </g>
            <text id="Image-processing-in" font-family="PTSans-NarrowBold, PT Sans Narrow" font-size="120" font-style="condensed" font-weight="bold" fill="#171717">
                <tspan x="160" y="233">Image</tspan>
                <tspan x="160" y="374">processing</tspan>
                <tspan x="160" y="515">in 2017</tspan>
            </text>
            <text id="Alexander-Karpinsky" font-family="PTSans-Regular, PT Sans" font-size="50" font-weight="normal" fill="#171717">
                <tspan x="160" y="787">Alexander Karpinsky</tspan>
                <tspan x="160" y="846">Uploadcare.com</tspan>
            </text>
        </g>
    </g>
</svg>